<svg width="16" height="16" viewBox="0 0 16 16" fill="none" xmlns="http://www.w3.org/2000/svg">
<path fill-rule="evenodd" clip-rule="evenodd" d="M11.3504 10.5C12.4388 10.5 13.3654 11.1958 13.7088 12.1667H14.6838C14.9048 12.1667 15.1167 12.2545 15.273 12.4107C15.4293 12.567 15.5171 12.779 15.5171 13C15.5171 13.221 15.4293 13.433 15.273 13.5893C15.1167 13.7455 14.9048 13.8333 14.6838 13.8333H13.7088C13.5366 14.3213 13.2173 14.7438 12.7949 15.0427C12.3725 15.3415 11.8679 15.502 11.3504 15.502C10.833 15.502 10.3283 15.3415 9.90592 15.0427C9.48354 14.7438 9.16426 14.3213 8.99209 13.8333H1.35042C1.12941 13.8333 0.917448 13.7455 0.761167 13.5893C0.604887 13.433 0.51709 13.221 0.51709 13C0.51709 12.779 0.604887 12.567 0.761167 12.4107C0.917448 12.2545 1.12941 12.1667 1.35042 12.1667H8.99209C9.1646 11.6791 9.48402 11.257 9.90638 10.9585C10.3287 10.66 10.8332 10.4999 11.3504 10.5ZM11.3504 12.1667C11.1294 12.1667 10.9174 12.2545 10.7612 12.4107C10.6049 12.567 10.5171 12.779 10.5171 13C10.5171 13.221 10.6049 13.433 10.7612 13.5893C10.9174 13.7455 11.1294 13.8333 11.3504 13.8333C11.5714 13.8333 11.7834 13.7455 11.9397 13.5893C12.096 13.433 12.1838 13.221 12.1838 13C12.1838 12.779 12.096 12.567 11.9397 12.4107C11.7834 12.2545 11.5714 12.1667 11.3504 12.1667ZM4.68376 5.5C5.17458 5.49993 5.65457 5.64435 6.06387 5.91524C6.47317 6.18613 6.79367 6.57151 6.98542 7.02333L7.04126 7.16667H14.6838C14.8962 7.1669 15.1004 7.24823 15.2549 7.39404C15.4093 7.53985 15.5023 7.73913 15.5147 7.95116C15.5272 8.1632 15.4582 8.37198 15.3219 8.53486C15.1855 8.69774 14.9922 8.80241 14.7813 8.8275L14.6838 8.83333H7.04209C6.87409 9.30857 6.5664 9.72195 6.15937 10.0193C5.75233 10.3166 5.26495 10.484 4.76113 10.4995C4.25731 10.515 3.76057 10.3779 3.33603 10.1061C2.91149 9.83437 2.57898 9.44068 2.38209 8.97667L2.32542 8.83333H1.35042C1.13802 8.8331 0.93373 8.75177 0.779283 8.60596C0.624836 8.46015 0.531894 8.26087 0.519446 8.04884C0.506999 7.8368 0.575985 7.62802 0.712311 7.46514C0.848636 7.30226 1.04201 7.19759 1.25292 7.1725L1.35042 7.16667H2.32542C2.49793 6.6791 2.81736 6.25702 3.23971 5.95853C3.66207 5.66005 4.16658 5.49985 4.68376 5.5ZM4.68376 7.16667C4.46274 7.16667 4.25078 7.25446 4.0945 7.41074C3.93822 7.56702 3.85042 7.77899 3.85042 8C3.85042 8.22101 3.93822 8.43297 4.0945 8.58926C4.25078 8.74554 4.46274 8.83333 4.68376 8.83333C4.90477 8.83333 5.11673 8.74554 5.27301 8.58926C5.42929 8.43297 5.51709 8.22101 5.51709 8C5.51709 7.77899 5.42929 7.56702 5.27301 7.41074C5.11673 7.25446 4.90477 7.16667 4.68376 7.16667ZM11.3504 0.5C12.4388 0.5 13.3654 1.19583 13.7088 2.16667H14.6838C14.9048 2.16667 15.1167 2.25446 15.273 2.41074C15.4293 2.56702 15.5171 2.77899 15.5171 3C15.5171 3.22101 15.4293 3.43298 15.273 3.58926C15.1167 3.74554 14.9048 3.83333 14.6838 3.83333H13.7088C13.5366 4.32128 13.2173 4.74381 12.7949 5.04268C12.3725 5.34155 11.8679 5.50204 11.3504 5.50204C10.833 5.50204 10.3283 5.34155 9.90592 5.04268C9.48354 4.74381 9.16426 4.32128 8.99209 3.83333H1.35042C1.12941 3.83333 0.917448 3.74554 0.761167 3.58926C0.604887 3.43298 0.51709 3.22101 0.51709 3C0.51709 2.77899 0.604887 2.56702 0.761167 2.41074C0.917448 2.25446 1.12941 2.16667 1.35042 2.16667H8.99209C9.1646 1.6791 9.48402 1.25702 9.90638 0.958533C10.3287 0.660049 10.8332 0.499851 11.3504 0.5ZM11.3504 2.16667C11.1294 2.16667 10.9174 2.25446 10.7612 2.41074C10.6049 2.56702 10.5171 2.77899 10.5171 3C10.5171 3.22101 10.6049 3.43298 10.7612 3.58926C10.9174 3.74554 11.1294 3.83333 11.3504 3.83333C11.5714 3.83333 11.7834 3.74554 11.9397 3.58926C12.096 3.43298 12.1838 3.22101 12.1838 3C12.1838 2.77899 12.096 2.56702 11.9397 2.41074C11.7834 2.25446 11.5714 2.16667 11.3504 2.16667Z" fill="white"/>
</svg>

